{
  "accessors": [
    {
      "bufferView": 2,
      "componentType": 5126,
      "count": 23384,
      "max": [
        4.372106075286865,
        14.47321891784668,
        12.479729652404785
      ],
      "min": [
        -6.397281169891357,
        -14.39988899230957,
        -0.04088300094008446
      ],
      "type": "VEC3"
    },
    {
      "bufferView": 2,
      "byteOffset": 280608,
      "componentType": 5126,
      "count": 23384,
      "max": [
        0.9999884963035583,
        0.9999138712882996,
        0.9999534487724304
      ],
      "min": [
        -0.9999899864196777,
        -0.9999220967292786,
        -0.9999996423721313
      ],
      "type": "VEC3"
    },
    {
      "bufferView": 1,
      "componentType": 5126,
      "count": 23384,
      "max": [
        0.9980469942092896,
        0.9926649928092957
      ],
      "min": [
        0.0019529999699443579,
        0.0019529999699443579
      ],
      "type": "VEC2"
    },
    {
      "bufferView": 0,
      "componentType": 5125,
      "count": 119988,
      "type": "SCALAR"
    }
  ],
  "asset": {
    "extras": {
      "author": "Toni.Escribano.Llorente (https://sketchfab.com/Toni.Escribano.Llorente)",
      "license": "CC-BY-NC-4.0 (http://creativecommons.org/licenses/by-nc/4.0/)",
      "source": "https://sketchfab.com/3d-models/puma-suede-5b098581cb7040d8ba30955ddf2e04c8",
      "title": "Puma Suede"
    },
    "generator": "Sketchfab-12.68.0",
    "version": "2.0"
  },
  "bufferViews": [
    {
      "buffer": 0,
      "byteLength": 479952,
      "name": "floatBufferViews",
      "target": 34963
    },
    {
      "buffer": 0,
      "byteLength": 187072,
      "byteOffset": 479952,
      "byteStride": 8,
      "name": "floatBufferViews",
      "target": 34962
    },
    {
      "buffer": 0,
      "byteLength": 561216,
      "byteOffset": 667024,
      "byteStride": 12,
      "name": "floatBufferViews",
      "target": 34962
    }
  ],
  "buffers": [
    {
      "byteLength": 1228240,
      "uri": "scene.bin"
    }
  ],
  "images": [
    {
      "uri": "textures/material_0_baseColor.png"
    },
    {
      "uri": "textures/material_0_metallicRoughness.png"
    }
  ],
  "materials": [
    {
      "doubleSided": true,
      "name": "material_0",
      "pbrMetallicRoughness": {
        "baseColorTexture": {
          "index": 0
        },
        "metallicRoughnessTexture": {
          "index": 1
        }
      }
    }
  ],
  "meshes": [
    {
      "name": "Object_0",
      "primitives": [
        {
          "attributes": {
            "NORMAL": 1,
            "POSITION": 0,
            "TEXCOORD_0": 2
          },
          "indices": 3,
          "material": 0,
          "mode": 4
        }
      ]
    }
  ],
  "nodes": [
    {
      "children": [
        1
      ],
      "matrix": [
        0.0833333358168602,
        0.0,
        0.0,
        0.0,
        0.0,
        1.8503717628539684e-17,
        -0.0833333358168602,
        0.0,
        0.0,
        0.0833333358168602,
        1.8503717628539684e-17,
        0.0,
        0.0,
        0.0,
        0.0,
        1.0
      ],
      "name": "Sketchfab_model"
    },
    {
      "children": [
        2
      ],
      "name": "Puma_Sneker_01.obj.cleaner.materialmerger.gles"
    },
    {
      "mesh": 0,
      "name": "Object_2"
    }
  ],
  "samplers": [
    {
      "magFilter": 9729,
      "minFilter": 9987,
      "wrapS": 10497,
      "wrapT": 10497
    }
  ],
  "scene": 0,
  "scenes": [
    {
      "name": "Sketchfab_Scene",
      "nodes": [
        0
      ]
    }
  ],
  "textures": [
    {
      "sampler": 0,
      "source": 0
    },
    {
      "sampler": 0,
      "source": 1
    }
  ]
}
